#!OML:ASF H:\LiuWeirdWalks\Patient Classification 1\Patient 1\Session 1\male.ASF
:FULLY-SPECIFIED
:DEGREES
1483
root 1.43587 18.116 32.6044 5.71803 2.86177 6.18175
lowerback 6.66878 0.57896 -8.21864
upperback -1.57165 0.159628 1.94076
thorax -5.44779 0.384024 6.6733
lowerneck -19.8241 -0.133366 6.22963
upperneck 16.7273 -0.00237206 -9.59395
head 8.46662 -0.627707 -4.30265
rclavicle 4.27387e-015 -1.43125e-014
rhumerus -21.6984 -24.7622 -12.61
rradius 30.9844
rwrist -5.79932
rhand -23.215 -4.89647
rfingers 7.12502
rthumb 3.23551 -34.8517
lclavicle 4.27387e-015 -1.43125e-014
lhumerus -26.2312 14.475 28.3064
lradius 40.3818
lwrist 38.7217
lhand -36.2086 0.000520752
lfingers 7.12502
lthumb -9.31109 29.7749
rfemur -17.5471 -5.4278 12.8861
rtibia 35.1077
rfoot -14.2375 -19.4471
rtoes -2.65284
lfemur -9.95447 -1.95336 -22.6503
ltibia 17.9066
lfoot -4.6736 14.9529
ltoes -8.93447
1484
root 1.45541 18.1175 32.6208 5.66237 2.85376 6.13028
lowerback 6.55185 0.557936 -8.29127
upperback -1.63184 0.125675 1.79419
thorax -5.43894 0.368484 6.5608
lowerneck -19.8162 -0.181666 6.14892
upperneck 16.9628 -0.0904665 -9.30873
head 8.5366 -0.644972 -4.20788
rclavicle -1.70955e-014 2.38542e-015
rhumerus -21.7026 -24.462 -12.7036
rradius 30.9409
rwrist -6.30907
rhand -23.4437 -5.02155
rfingers 7.12502
rthumb 3.01464 -34.98
lclavicle -1.70955e-014 2.38542e-015
lhumerus -26.1957 14.4748 28.2388
lradius 40.2585
lwrist 38.3273
lhand -36.0415 0.175647
lfingers 7.12502
lthumb -9.1498 29.9572
rfemur -17.391 -5.51675 12.8614
rtibia 35.0675
rfoot -14.3314 -19.3357
rtoes -2.56859
lfemur -9.76464 -1.90312 -22.664
ltibia 17.7945
lfoot -4.69401 14.9121
ltoes -9.05074
1485
root 1.47574 18.1194 32.6374 5.5929 2.86497 6.00045
lowerback 6.45776 0.5708 -8.19499
upperback -1.70543 0.149135 1.64598
thorax -5.46552 0.377738 6.34381
lowerneck -19.813 -0.287319 5.97852
upperneck 17.2246 -0.239531 -8.98336
head 8.61212 -0.692467 -4.09254
rclavicle 9.14409e-015 -7.95139e-015
rhumerus -21.8946 -24.1584 -12.663
rradius 30.9955
rwrist -6.80817
rhand -23.6387 -5.21619
rfingers 7.12502
rthumb 2.82629 -35.1772
lclavicle 9.14409e-015 -7.95139e-015
lhumerus -26.0234 14.3951 28.2439
lradius 40.0945
lwrist 37.9563
lhand -35.8898 0.346997
lfingers 7.12502
lthumb -9.00347 30.1349
rfemur -17.1774 -5.58561 12.9237
rtibia 34.9429
rfoot -14.3843 -19.2517
rtoes -2.48653
lfemur -9.61698 -1.86884 -22.586
ltibia 17.7872
lfoot -4.76704 14.863
ltoes -9.17522
1486
root 1.49639 18.1216 32.6539 5.52079 2.87041 5.80281
lowerback 6.38513 0.586351 -8.03163
upperback -1.80616 0.180604 1.52809
thorax -5.53372 0.39188 6.12079
lowerneck -19.7369 -0.386704 5.83073
upperneck 17.4519 -0.374895 -8.7126
head 8.66503 -0.736112 -3.99594
rclavicle 1.32192e-014 1.43125e-014
rhumerus -22.0253 -23.7931 -12.6089
rradius 30.9724
rwrist -7.50342
rhand -23.9644 -5.42713
rfingers 7.12502
rthumb 2.51176 -35.3921
lclavicle 1.32192e-014 1.43125e-014
lhumerus -25.8827 14.275 28.2459
lradius 39.9384
lwrist 37.6433
lhand -35.7396 0.427727
lfingers 7.12502
lthumb -8.85853 30.2218
rfemur -16.9279 -5.59614 13.0659
rtibia 34.7325
rfoot -14.382 -19.2127
rtoes -2.40527
lfemur -9.52719 -1.83857 -22.4272
ltibia 17.8907
lfoot -4.89168 14.8255
ltoes -9.28667
1487
root 1.51664 18.1243 32.6704 5.40047 2.86824 5.41174
lowerback 6.35996 0.60136 -7.70024
upperback -1.90294 0.225858 1.4878
thorax -5.62507 0.409034 5.88382
lowerneck -19.6608 -0.470106 5.69827
upperneck 17.6858 -0.483081 -8.49012
head 8.72302 -0.771045 -3.91552
rclavicle -1.78906e-015 4.77083e-015
rhumerus -22.2062 -23.6716 -12.4552
rradius 30.9941
rwrist -7.53332
rhand -23.9348 -5.47831
rfingers 7.12502
rthumb 2.54032 -35.4429
lclavicle -1.78906e-015 4.77083e-015
lhumerus -25.78 14.1875 28.2434
lradius 39.7902
lwrist 37.3408
lhand -35.6083 0.494756
lfingers 7.12502
lthumb -8.73182 30.2941
rfemur -16.613 -5.51311 13.4287
rtibia 34.4697
rfoot -14.3561 -19.242
rtoes -2.34341
lfemur -9.4255 -1.80128 -22.05
ltibia 18.0534
lfoot -5.04444 14.81
ltoes -9.38601
1488
root 1.53701 18.1267 32.6866 5.27655 2.8681 5.01803
lowerback 6.34963 0.622213 -7.35569
upperback -1.99913 0.279396 1.45393
thorax -5.7248 0.429682 5.64555
lowerneck -19.5951 -0.549323 5.58341
upperneck 17.9133 -0.584966 -8.30195
head 8.78163 -0.805602 -3.84919
rclavicle 1.35671e-014 -2.06736e-014
rhumerus -22.3789 -23.5697 -12.2663
rradius 30.9924
rwrist -7.57717
rhand -23.939 -5.53796
rfingers 7.12502
rthumb 2.53625 -35.5026
lclavicle 1.35671e-014 -2.06736e-014
lhumerus -25.6593 14.1088 28.2499
lradius 39.6479
lwrist 37.0728
lhand -35.485 0.51314
lfingers 7.12502
lthumb -8.61281 30.3175
rfemur -16.2897 -5.42265 13.7939
rtibia 34.1928
rfoot -14.3135 -19.2853
rtoes -2.30461
lfemur -9.33196 -1.75788 -21.6722
ltibia 18.2356
lfoot -5.19937 14.7975
ltoes -9.47798
1489
root 1.55723 18.1285 32.7024 5.16955 2.85272 4.69863
lowerback 6.33445 0.654297 -7.0861
upperback -2.10032 0.341312 1.40849
thorax -5.82865 0.456672 5.43685
lowerneck -19.5372 -0.635301 5.45523
upperneck 18.1478 -0.691318 -8.12177
head 8.84418 -0.844108 -3.78432
rclavicle 6.75868e-015 7.15625e-015
rhumerus -22.5458 -23.4632 -12.0417
rradius 30.9731
rwrist -7.62408
rhand -23.9754 -5.5927
rfingers 7.12502
rthumb 2.50114 -35.5578
lclavicle 6.75868e-015 7.15625e-015
lhumerus -25.5237 14.0185 28.269
lradius 39.5098
lwrist 36.8507
lhand -35.3837 0.541532
lfingers 7.12502
lthumb -8.5151 30.3498
rfemur -15.991 -5.32737 14.0759
rtibia 33.9249
rfoot -14.2616 -19.3296
rtoes -2.27899
lfemur -9.25279 -1.71297 -21.3814
ltibia 18.4146
lfoot -5.34212 14.8082
ltoes -9.5513
1490
root 1.57679 18.1297 32.7174 5.10634 2.82475 4.51295
lowerback 6.28095 0.670262 -6.98898
upperback -2.19921 0.368723 1.34461
thorax -5.90503 0.471083 5.31062
lowerneck -19.5079 -0.685776 5.39262
upperneck 18.3703 -0.758422 -7.99643
head 8.91064 -0.865948 -3.74477
rclavicle -6.11263e-015 1.43125e-014
rhumerus -22.5934 -23.3836 -11.8613
rradius 30.8669
rwrist -7.69217
rhand -24.0657 -5.6149
rfingers 7.12502
rthumb 2.41395 -35.581
lclavicle -6.11263e-015 1.43125e-014
lhumerus -25.4677 13.938 28.2458
lradius 39.4496
lwrist 36.6586
lhand -35.2971 0.610168
lfingers 7.12502
lthumb -8.43154 30.4219
rfemur -15.7668 -5.24667 14.209
rtibia 33.7141
rfoot -14.2269 -19.3618
rtoes -2.27183
lfemur -9.18846 -1.68089 -21.2437
ltibia 18.5344
lfoot -5.43723 14.8423
ltoes -9.61337
1491
root 1.59682 18.1305 32.7323 5.07474 2.77946 4.3964
lowerback 6.18874 0.68894 -6.95225
upperback -2.2937 0.396769 1.26825
thorax -5.95534 0.48654 5.20538
lowerneck -19.4981 -0.731874 5.33401
upperneck 18.5728 -0.819274 -7.88733
head 8.97448 -0.886554 -3.71053
rclavicle -9.56651e-015 6.36111e-015
rhumerus -22.6226 -23.3109 -11.6713
rradius 30.7586
rwrist -7.7521
rhand -24.1759 -5.64427
rfingers 7.12502
rthumb 2.30749 -35.6115
lclavicle -9.56651e-015 6.36111e-015
lhumerus -25.4222 13.887 28.2127
lradius 39.3984
lwrist 36.3821
lhand -35.1739 0.700896
lfingers 7.12502
lthumb -8.31261 30.5173
rfemur -15.6091 -5.18613 14.262
rtibia 33.5693
rfoot -14.2198 -19.3684
rtoes -2.27415
lfemur -9.12001 -1.66491 -21.1898
ltibia 18.5854
lfoot -5.49457 14.909
ltoes -9.64524
1492
root 1.6182 18.1307 32.7464 5.0907 2.70913 4.44009
lowerback 6.05945 0.703254 -7.06861
upperback -2.38835 0.406608 1.15565
thorax -5.98406 0.497226 5.1507
lowerneck -19.5214 -0.763348 5.28903
upperneck 18.7678 -0.862467 -7.79415
head 9.04314 -0.900083 -3.68229
rclavicle 2.70844e-015 1.19271e-014
rhumerus -22.5802 -23.1627 -11.5474
rradius 30.6768
rwrist -8.17965
rhand -24.5042 -5.75991
rfingers 7.12502
rthumb 1.99042 -35.7304
lclavicle 2.70844e-015 1.19271e-014
lhumerus -25.4134 13.8743 28.1507
lradius 39.3596
lwrist 36.051
lhand -35.0309 0.803528
lfingers 7.12502
lthumb -8.17457 30.6254
rfemur -15.5417 -5.17239 14.1282
rtibia 33.5032
rfoot -14.2382 -19.3202
rtoes -2.29001
lfemur -9.05745 -1.67544 -21.325
ltibia 18.5588
lfoot -5.49677 15.0154
ltoes -9.6728
1493
root 1.64072 18.1304 32.7598 5.12102 2.62434 4.55699
lowerback 5.91206 0.710012 -7.24937
upperback -2.47203 0.402287 1.03176
thorax -5.98972 0.502024 5.12214
lowerneck -19.5784 -0.78311 5.24061
upperneck 18.9556 -0.889532 -7.70483
head 9.11688 -0.907157 -3.65321
rclavicle -1.63997e-015 -4.77083e-015
rhumerus -22.4731 -22.9436 -11.4991
rradius 30.6532
rwrist -9.05449
rhand -25.0759 -5.94375
rfingers 7.12502
rthumb 1.43829 -35.9187
lclavicle -1.63997e-015 -4.77083e-015
lhumerus -25.4398 13.9414 28.0535
lradius 39.3147
lwrist 35.5638
lhand -34.8312 0.949713
lfingers 7.12502
lthumb -7.98185 30.779
rfemur -15.515 -5.20038 13.9046
rtibia 33.4849
rfoot -14.2739 -19.2243
rtoes -2.3253
lfemur -8.98814 -1.70018 -21.5499
ltibia 18.4933
lfoot -5.47656 15.1432
ltoes -9.69586
